<?xml version="1.0" encoding="UTF-8"?>
<svg width="512px" height="512px" viewBox="0 0 512 512" version="1.1" xmlns="http://www.w3.org/2000/svg"
     xmlns:xlink="http://www.w3.org/1999/xlink">
  <!-- Generator: Sketch 3.6.1 (26313) - http://www.bohemiancoding.com/sketch -->
  <title>buy</title>
  <desc>Created with Sketch.</desc>
  <defs></defs>
  <g id="Page-1" stroke="none" stroke-width="1" fill="none" fill-rule="evenodd">
    <g id="buy">
      <g id="Page-1">
        <g>
          <g id="buy">
            <g id="Group">
              <path
                d="M256,512 L256,512 C115.2,512 0,396.8 0,256 L0,256 C0,115.2 115.2,0 256,0 L256,0 C396.8,0 512,115.2 512,256 L512,256 C512,396.8 396.8,512 256,512 L256,512 L256,512 Z"
                id="Shape" fill="#E9495B"></path>
              <path
                d="M506.508,203.424 L406.000008,152.108 L331.999993,112.999998 L294.004,152.108 L270.999993,168.999998 L223.807999,191.999998 L202,191.999996 L185.152001,191.999996 L158.175999,191.999997 L158.176,217.308 L129.688,327.332 L109.848,341.084 L129.688,362.999998 L245.02,511.72 C248.668,511.876 252.32,512 256,512 C396.8,512 512,396.8 512,256 C512,237.988 510.088,220.408 506.508,203.424 L506.508,203.424 Z"
                id="Shape" fill="#AB2D3D"></path>
              <g id="commerce-1" transform="translate(96.000000, 91.000000)">
                <g id="Group">
                  <path
                    d="M282.647,73.117 L9.118,73.117 C4.085,73.117 0,77.202 0,82.234 L0,118.695 C0,123.755 4.085,127.822 9.118,127.822 L18.236,127.822 L18.236,255.469 C18.236,265.544 26.405,273.704 36.471,273.704 L255.295,273.704 C265.37,273.704 273.53,265.544 273.53,255.469 L273.53,127.823 L282.648,127.823 C287.69,127.823 291.766,123.757 291.766,118.696 L291.766,82.234 C291.765,77.202 287.689,73.117 282.647,73.117 L282.647,73.117 L282.647,73.117 Z"
                    id="Shape" fill="#F4B459"></path>
                  <path
                    d="M18.235,255.461 C18.235,265.536 26.404,273.696 36.47,273.696 L127.665,273.696 L273.529,127.823 L18.235,127.823 L18.235,255.461 L18.235,255.461 L18.235,255.461 Z"
                    id="Shape" fill="#DBA250"></path>
                  <path
                    d="M68.382,164.293 C60.833,164.293 54.706,170.411 54.706,177.979 C54.706,185.528 60.833,191.646 68.382,191.646 C75.941,191.646 82.058,185.528 82.058,177.979 C82.059,170.411 75.941,164.293 68.382,164.293 L68.382,164.293 L68.382,164.293 Z M113.971,164.293 C106.422,164.293 100.295,170.411 100.295,177.979 C100.295,185.528 106.422,191.646 113.971,191.646 C121.53,191.646 127.647,185.528 127.647,177.979 C127.647,170.411 121.529,164.293 113.971,164.293 L113.971,164.293 L113.971,164.293 Z M68.382,209.891 C60.833,209.891 54.706,216 54.706,223.549 C54.706,231.117 60.833,237.235 68.382,237.235 C75.941,237.235 82.058,231.117 82.058,223.549 C82.059,215.999 75.941,209.891 68.382,209.891 L68.382,209.891 L68.382,209.891 Z M113.971,209.891 C106.422,209.891 100.295,216 100.295,223.549 C100.295,231.117 106.422,237.235 113.971,237.235 C121.53,237.235 127.647,231.117 127.647,223.549 C127.647,215.999 121.529,209.891 113.971,209.891 L113.971,209.891 L113.971,209.891 Z M177.794,164.293 C170.245,164.293 164.118,170.411 164.118,177.979 C164.118,185.528 170.245,191.646 177.794,191.646 C185.353,191.646 191.47,185.528 191.47,177.979 C191.471,170.411 185.353,164.293 177.794,164.293 L177.794,164.293 L177.794,164.293 Z M223.382,191.646 C230.941,191.646 237.058,185.528 237.058,177.979 C237.058,170.411 230.94,164.293 223.382,164.293 C215.833,164.293 209.706,170.411 209.706,177.979 C209.706,185.528 215.833,191.646 223.382,191.646 L223.382,191.646 L223.382,191.646 Z M177.794,209.891 C170.245,209.891 164.118,216 164.118,223.549 C164.118,231.117 170.245,237.235 177.794,237.235 C185.353,237.235 191.47,231.117 191.47,223.549 C191.471,215.999 185.353,209.891 177.794,209.891 L177.794,209.891 L177.794,209.891 Z M223.382,209.891 C215.833,209.891 209.706,216 209.706,223.549 C209.706,231.117 215.833,237.235 223.382,237.235 C230.941,237.235 237.058,231.117 237.058,223.549 C237.059,215.999 230.941,209.891 223.382,209.891 L223.382,209.891 L223.382,209.891 Z"
                    id="Shape" fill="#9E7E3A"></path>
                  <path
                    d="M231.114,5.819 C223.437,-1.858 210.991,-1.858 203.296,5.819 L133.291,75.824 C125.614,83.519 125.614,95.965 133.291,103.651 C140.977,111.337 153.432,111.337 161.109,103.651 L231.114,33.637 C238.8,25.951 238.8,13.497 231.114,5.819 L231.114,5.819 L231.114,5.819 Z"
                    id="Shape" fill="#475F6C"></path>
                  <g transform="translate(54.000000, 164.000000)" fill="#8E7133">
                    <ellipse id="Oval" cx="123.794" cy="13.979" rx="13.676" ry="13.676"></ellipse>
                    <ellipse id="Oval" cx="59.971" cy="13.979" rx="13.676" ry="13.676"></ellipse>
                    <path
                      d="M169.382,0.293 C161.833,0.293 155.706,6.411 155.706,13.979 C155.706,17.754 157.238,21.173 159.709,23.653 L179.048,4.314 C176.576,1.825 173.157,0.293 169.382,0.293 L169.382,0.293 L169.382,0.293 Z"
                      id="Shape"></path>
                    <ellipse id="Oval" cx="14.382" cy="13.979" rx="13.676" ry="13.676"></ellipse>
                    <path
                      d="M123.794,45.891 C116.245,45.891 110.118,52 110.118,59.549 C110.118,63.333 111.65,66.752 114.121,69.232 L133.46,49.893 C130.988,47.413 127.569,45.891 123.794,45.891 L123.794,45.891 L123.794,45.891 Z"
                      id="Shape"></path>
                    <ellipse id="Oval" cx="59.971" cy="59.567" rx="13.676" ry="13.676"></ellipse>
                    <ellipse id="Oval" cx="14.382" cy="59.567" rx="13.676" ry="13.676"></ellipse>
                  </g>
                </g>
              </g>
            </g>
            <text id="Buy" fill="#8E7133" font-family="Helvetica" font-size="36" font-weight="normal">
              <tspan x="106" y="204" fill="#000000">Buy</tspan>
            </text>
          </g>
          <g id="buy">
            <g id="Group">
              <path
                d="M256,512 L256,512 C115.2,512 0,396.8 0,256 L0,256 C0,115.2 115.2,0 256,0 L256,0 C396.8,0 512,115.2 512,256 L512,256 C512,396.8 396.8,512 256,512 L256,512 L256,512 Z"
                id="Shape" fill="#F1E7D1"></path>
              <g id="commerce-1" transform="translate(96.000000, 91.000000)">
                <g id="Group">
                  <path
                    d="M282.647,73.117 L9.118,73.117 C4.085,73.117 0,77.202 0,82.234 L0,118.695 C0,123.755 4.085,127.822 9.118,127.822 L18.236,127.822 L18.236,255.469 C18.236,265.544 26.405,273.704 36.471,273.704 L255.295,273.704 C265.37,273.704 273.53,265.544 273.53,255.469 L273.53,127.823 L282.648,127.823 C287.69,127.823 291.766,123.757 291.766,118.696 L291.766,82.234 C291.765,77.202 287.689,73.117 282.647,73.117 L282.647,73.117 L282.647,73.117 Z"
                    id="Shape" fill="#F4B459"></path>
                  <path
                    d="M18.235,255.461 C18.235,265.536 26.404,273.696 36.47,273.696 L127.665,273.696 L273.529,127.823 L18.235,127.823 L18.235,255.461 L18.235,255.461 L18.235,255.461 Z"
                    id="Shape" fill="#DBA250"></path>
                  <path
                    d="M68.382,164.293 C60.833,164.293 54.706,170.411 54.706,177.979 C54.706,185.528 60.833,191.646 68.382,191.646 C75.941,191.646 82.058,185.528 82.058,177.979 C82.059,170.411 75.941,164.293 68.382,164.293 L68.382,164.293 L68.382,164.293 Z M113.971,164.293 C106.422,164.293 100.295,170.411 100.295,177.979 C100.295,185.528 106.422,191.646 113.971,191.646 C121.53,191.646 127.647,185.528 127.647,177.979 C127.647,170.411 121.529,164.293 113.971,164.293 L113.971,164.293 L113.971,164.293 Z M68.382,209.891 C60.833,209.891 54.706,216 54.706,223.549 C54.706,231.117 60.833,237.235 68.382,237.235 C75.941,237.235 82.058,231.117 82.058,223.549 C82.059,215.999 75.941,209.891 68.382,209.891 L68.382,209.891 L68.382,209.891 Z M113.971,209.891 C106.422,209.891 100.295,216 100.295,223.549 C100.295,231.117 106.422,237.235 113.971,237.235 C121.53,237.235 127.647,231.117 127.647,223.549 C127.647,215.999 121.529,209.891 113.971,209.891 L113.971,209.891 L113.971,209.891 Z M177.794,164.293 C170.245,164.293 164.118,170.411 164.118,177.979 C164.118,185.528 170.245,191.646 177.794,191.646 C185.353,191.646 191.47,185.528 191.47,177.979 C191.471,170.411 185.353,164.293 177.794,164.293 L177.794,164.293 L177.794,164.293 Z M223.382,191.646 C230.941,191.646 237.058,185.528 237.058,177.979 C237.058,170.411 230.94,164.293 223.382,164.293 C215.833,164.293 209.706,170.411 209.706,177.979 C209.706,185.528 215.833,191.646 223.382,191.646 L223.382,191.646 L223.382,191.646 Z M177.794,209.891 C170.245,209.891 164.118,216 164.118,223.549 C164.118,231.117 170.245,237.235 177.794,237.235 C185.353,237.235 191.47,231.117 191.47,223.549 C191.471,215.999 185.353,209.891 177.794,209.891 L177.794,209.891 L177.794,209.891 Z M223.382,209.891 C215.833,209.891 209.706,216 209.706,223.549 C209.706,231.117 215.833,237.235 223.382,237.235 C230.941,237.235 237.058,231.117 237.058,223.549 C237.059,215.999 230.941,209.891 223.382,209.891 L223.382,209.891 L223.382,209.891 Z"
                    id="Shape" fill="#9E7E3A"></path>
                  <path
                    d="M231.114,5.819 C223.437,-1.858 210.991,-1.858 203.296,5.819 L133.291,75.824 C125.614,83.519 125.614,95.965 133.291,103.651 C140.977,111.337 153.432,111.337 161.109,103.651 L231.114,33.637 C238.8,25.951 238.8,13.497 231.114,5.819 L231.114,5.819 L231.114,5.819 Z"
                    id="Shape" fill="#C55448"></path>
                  <g transform="translate(54.000000, 164.000000)" fill="#8E7133">
                    <ellipse id="Oval" cx="123.794" cy="13.979" rx="13.676" ry="13.676"></ellipse>
                    <ellipse id="Oval" cx="59.971" cy="13.979" rx="13.676" ry="13.676"></ellipse>
                    <path
                      d="M169.382,0.293 C161.833,0.293 155.706,6.411 155.706,13.979 C155.706,17.754 157.238,21.173 159.709,23.653 L179.048,4.314 C176.576,1.825 173.157,0.293 169.382,0.293 L169.382,0.293 L169.382,0.293 Z"
                      id="Shape"></path>
                    <ellipse id="Oval" cx="14.382" cy="13.979" rx="13.676" ry="13.676"></ellipse>
                    <path
                      d="M123.794,45.891 C116.245,45.891 110.118,52 110.118,59.549 C110.118,63.333 111.65,66.752 114.121,69.232 L133.46,49.893 C130.988,47.413 127.569,45.891 123.794,45.891 L123.794,45.891 L123.794,45.891 Z"
                      id="Shape"></path>
                    <ellipse id="Oval" cx="59.971" cy="59.567" rx="13.676" ry="13.676"></ellipse>
                    <ellipse id="Oval" cx="14.382" cy="59.567" rx="13.676" ry="13.676"></ellipse>
                  </g>
                </g>
              </g>
            </g>
            <text id="Buy" fill="#A58042" font-family="AmericanTypewriter, American Typewriter" font-size="36"
                  font-weight="normal">
              <tspan x="106" y="204" fill="#000000">Buy</tspan>
            </text>
          </g>
        </g>
      </g>
    </g>
  </g>
</svg>
