<?xml version="1.0" encoding="UTF-8"?>
<svg width="304px" height="305px" viewBox="0 0 304 305" version="1.1" xmlns="http://www.w3.org/2000/svg"
     xmlns:xlink="http://www.w3.org/1999/xlink">
  <!-- Generator: Sketch 3.6.1 (26313) - http://www.bohemiancoding.com/sketch -->
  <title>cart</title>
  <desc>Created with Sketch.</desc>
  <defs></defs>
  <g id="Page-1" stroke="none" stroke-width="1" fill="none" fill-rule="evenodd">
    <g id="cart" fill="#8F7140">
      <g id="Layer_1">
        <g>
          <g id="Group">
            <path
              d="M302.784,80.652 C302.22,79.888 301.372,79.4 300.432,79.312 L122.82,62.4 C122.824,62.364 122.844,62.332 122.844,62.292 C123.588,43.732 119.64,29.816 111.104,20.932 C102.14,11.6 91.436,11.436 91.328,11.532 L36.592,7.052 L36.592,3.3 C36.592,1.476 35.112,0 33.292,0 L12.032,0 C5.924,0 0.952,4.972 0.952,11.08 L0.952,16.264 C0.952,22.372 5.924,27.344 12.032,27.344 L33.292,27.344 C34.844,27.344 36.088,26.248 36.44,24.804 C38.908,25.444 42.436,26.896 45.664,30.304 C51.356,36.316 53.968,46.068 53.432,59.292 C53.428,59.376 53.468,59.448 53.472,59.536 C53.476,59.632 53.432,59.716 53.44,59.812 L71.736,215.364 C71.932,217.032 73.352,218.28 75.012,218.28 C75.076,218.28 75.136,218.276 75.2,218.276 L85.068,217.732 C76.632,223.84 66.272,233.824 66.228,246.152 C66.212,250.584 66.196,258.104 66.236,258.748 C66.348,260.48 67.792,261.832 69.528,261.832 L69.556,261.832 L97.432,261.612 L98.152,269.564 C92.972,273.204 89.88,278.92 89.88,285.068 C89.88,295.716 99.004,304.376 110.216,304.376 C121.428,304.376 130.552,295.716 130.552,285.068 C130.552,281.684 129.596,278.396 127.832,275.48 C129.284,270.24 129.612,264.844 129.624,261.356 L221.86,260.624 L222.672,269.564 C217.488,273.204 214.396,278.92 214.396,285.068 C214.396,295.716 223.52,304.376 234.736,304.376 C245.948,304.376 255.072,295.716 255.072,285.068 C255.072,281.68 254.112,278.392 252.352,275.476 C253.952,269.696 254.18,263.748 254.136,260.368 L264.244,260.288 C266.068,260.268 267.532,258.784 267.52,256.96 C267.5,255.148 266.028,253.684 264.22,253.684 L264.192,253.684 L72.816,255.208 C72.812,253.392 72.816,250.572 72.832,246.184 C72.892,229.924 98.376,217.228 98.632,217.104 C98.696,217.072 98.732,217.016 98.796,216.98 L274.684,207.3 C276.176,207.216 277.42,206.144 277.732,204.684 L303.352,83.288 C303.548,82.372 303.336,81.412 302.784,80.652 L302.784,80.652 Z M29.992,20.736 L12.036,20.736 C9.564,20.736 7.56,18.728 7.56,16.26 L7.56,11.076 C7.56,8.608 9.564,6.6 12.036,6.6 L29.992,6.6 L29.992,20.736 L29.992,20.736 Z M249.528,260.396 C249.612,266.856 248.512,278.812 242.528,283.8 C236.676,288.68 231.632,289.516 229.132,289.576 L226.496,260.58 L249.528,260.396 L249.528,260.396 Z M224.708,291.96 C224.8,292.98 225.556,293.816 226.556,294.012 C226.66,294.036 227.444,294.18 228.744,294.18 C231.968,294.18 238.364,293.28 245.488,287.34 C247.36,285.78 248.832,283.8 249.988,281.608 C250.28,282.732 250.452,283.884 250.452,285.052 C250.452,293.148 243.404,299.74 234.736,299.74 C226.068,299.74 219.02,293.148 219.02,285.052 C219.02,281.336 220.544,277.82 223.18,275.136 L224.708,291.96 L224.708,291.96 Z M125.004,261.384 C124.968,268.012 123.708,279.048 118.012,283.8 C112.156,288.68 107.116,289.516 104.62,289.576 L102.068,261.568 L125.004,261.384 L125.004,261.384 Z M100.196,291.96 C100.292,292.98 101.044,293.816 102.044,294.012 C102.148,294.036 102.932,294.18 104.232,294.18 C107.452,294.18 113.848,293.28 120.968,287.34 C122.84,285.78 124.312,283.804 125.472,281.608 C125.76,282.732 125.936,283.88 125.936,285.052 C125.936,293.148 118.884,299.74 110.22,299.74 C101.556,299.74 94.504,293.148 94.504,285.052 C94.504,281.332 96.028,277.816 98.664,275.132 L100.196,291.96 L100.196,291.96 Z M50.324,25.624 C45.46,20.56 39.992,18.74 36.596,18.076 L36.596,13.672 L91.044,18.12 C91.384,18.124 99.508,18.3 106.456,25.616 C113.584,33.124 116.88,45.296 116.256,61.772 L60.06,56.42 C60.116,42.832 56.876,32.452 50.324,25.624 L50.324,25.624 Z M77.936,211.508 L73.452,173.388 C73.836,174.136 74.604,174.648 75.496,174.648 L75.596,174.648 L106.908,173.296 C107.304,173.28 107.652,173.136 107.972,172.948 L112.336,209.612 L77.936,211.508 L77.936,211.508 Z M271.792,200.836 L250.5,202.008 L237.164,97.616 C237,96.344 235.792,95.448 234.58,95.612 C233.312,95.776 232.42,96.932 232.576,98.196 L234.444,112.824 L210.164,114.124 C208.892,114.192 207.916,115.28 207.98,116.552 C208.044,117.784 209.064,118.74 210.288,118.74 C210.332,118.74 210.372,118.74 210.412,118.736 L234.78,117.428 C234.868,117.424 234.944,117.38 235.028,117.364 L237.736,138.548 C237.464,138.456 237.168,138.408 236.86,138.432 L212.496,139.74 C211.224,139.808 210.244,140.896 210.312,142.168 C210.376,143.4 211.396,144.356 212.62,144.356 C212.66,144.356 212.704,144.356 212.744,144.352 L237.108,143.044 C237.544,143.02 237.92,142.844 238.256,142.62 L240.908,163.384 C240.472,162.992 239.9,162.768 239.276,162.876 L214.912,164.184 C213.64,164.252 212.66,165.34 212.728,166.612 C212.792,167.844 213.816,168.8 215.036,168.8 C215.076,168.8 215.12,168.8 215.16,168.796 L239.524,167.484 C240.288,167.444 240.912,167.016 241.3,166.424 L245.876,202.256 L204.904,204.512 L191.44,91.388 C191.292,90.124 190.124,89.172 188.876,89.368 C187.608,89.52 186.7,90.664 186.856,91.932 L189.584,114.816 L164.928,116.084 C163.656,116.148 162.672,117.236 162.74,118.508 C162.804,119.74 163.824,120.7 165.048,120.7 C165.084,120.7 165.124,120.7 165.164,120.696 L190.132,119.412 L192.628,140.396 L167.256,141.7 C165.984,141.764 165,142.852 165.068,144.124 C165.132,145.356 166.152,146.316 167.376,146.316 C167.412,146.316 167.452,146.316 167.492,146.312 L192.884,145.004 C192.984,145 193.072,144.948 193.168,144.932 L195.544,164.88 C195.384,164.864 195.24,164.812 195.064,164.836 L169.672,166.144 C168.4,166.208 167.416,167.296 167.484,168.568 C167.548,169.8 168.568,170.76 169.792,170.76 C169.828,170.76 169.868,170.76 169.908,170.756 L195.3,169.444 C195.572,169.432 195.824,169.348 196.064,169.252 L200.288,204.76 L161.004,206.924 L147.56,94.272 C147.408,93.008 146.236,92.056 144.996,92.252 C143.728,92.4 142.82,93.552 142.976,94.816 L145.588,116.704 C145.44,116.696 145.312,116.644 145.152,116.672 L117.18,117.868 C115.908,117.928 114.912,119.008 114.968,120.28 C115.024,121.52 116.048,122.488 117.28,122.488 C117.312,122.488 117.344,122.488 117.38,122.484 L145.352,121.288 C145.624,121.272 145.872,121.192 146.112,121.096 L148.664,142.504 C148.324,142.332 147.936,142.224 147.476,142.284 L119.504,143.48 C118.232,143.54 117.24,144.616 117.296,145.892 C117.352,147.136 118.372,148.104 119.608,148.104 C119.64,148.104 119.672,148.104 119.708,148.1 L147.68,146.904 C148.244,146.876 148.732,146.628 149.12,146.276 L151.644,167.44 C151.22,167.008 150.644,166.728 149.996,166.728 C149.964,166.728 149.932,166.728 149.896,166.732 L121.928,167.928 C120.656,167.988 119.66,169.064 119.716,170.34 C119.772,171.58 120.792,172.548 122.028,172.548 C122.06,172.548 122.092,172.548 122.128,172.544 L150.1,171.348 C150.924,171.312 151.592,170.824 151.976,170.156 L156.396,207.176 L116.964,209.344 L103.068,92.608 C102.92,91.34 101.732,90.404 100.504,90.588 C99.236,90.736 98.328,91.884 98.484,93.152 L101.516,118.628 L70.664,119.948 C69.392,120.008 68.396,121.08 68.452,122.36 C68.508,123.604 69.528,124.568 70.764,124.568 L70.864,124.568 L102.068,123.228 L104.568,144.256 C104.476,144.256 104.4,144.22 104.304,144.228 L72.992,145.568 C71.72,145.628 70.728,146.7 70.784,147.98 C70.84,149.22 71.86,150.188 73.096,150.188 L73.196,150.188 L104.508,148.84 C104.72,148.832 104.908,148.756 105.1,148.692 L107.492,168.788 C107.252,168.72 107.008,168.66 106.72,168.664 L75.408,170.016 C74.332,170.06 73.496,170.852 73.292,171.86 L62.148,77.264 L194.576,87.788 C194.636,87.792 194.7,87.796 194.764,87.796 C195.956,87.796 196.964,86.876 197.06,85.668 C197.164,84.4 196.212,83.284 194.94,83.184 L61.6,72.588 L60.484,63.096 L296.132,85.532 L271.792,200.836 L271.792,200.836 Z"
              id="Shape"></path>
            <path
              d="M269.52,111.424 L252.336,112.16 C251.064,112.22 250.072,113.296 250.132,114.572 C250.18,115.812 251.204,116.78 252.44,116.78 L252.54,116.78 L269.724,116.044 C270.996,115.984 271.988,114.908 271.928,113.632 C271.876,112.36 271.02,111.404 269.52,111.424 L269.52,111.424 Z"
              id="Shape"></path>
            <path
              d="M112.112,277.684 C114.96,277.684 117.28,275.364 117.28,272.512 C117.28,269.66 114.96,267.34 112.112,267.34 C109.26,267.34 106.94,269.66 106.94,272.512 C106.94,275.364 109.26,277.684 112.112,277.684 L112.112,277.684 Z M112.112,271.964 C112.412,271.964 112.656,272.208 112.656,272.512 C112.656,273.132 111.56,273.124 111.56,272.512 C111.56,272.208 111.808,271.964 112.112,271.964 L112.112,271.964 Z"
              id="Shape"></path>
            <path
              d="M236.624,277.684 C239.476,277.684 241.796,275.364 241.796,272.512 C241.796,269.66 239.476,267.34 236.624,267.34 C233.776,267.34 231.456,269.66 231.456,272.512 C231.46,275.364 233.78,277.684 236.624,277.684 L236.624,277.684 Z M236.624,271.964 C236.928,271.964 237.172,272.208 237.172,272.512 C237.172,273.124 236.076,273.132 236.076,272.512 C236.08,272.208 236.324,271.964 236.624,271.964 L236.624,271.964 Z"
              id="Shape"></path>
            <path
              d="M254.872,164.632 C254.92,165.876 255.944,166.84 257.18,166.84 L257.28,166.84 L274.464,166.104 C275.736,166.044 276.732,164.972 276.672,163.692 C276.62,162.412 275.716,161.436 274.264,161.48 L257.08,162.22 C255.804,162.28 254.816,163.352 254.872,164.632 L254.872,164.632 Z"
              id="Shape"></path>
            <path
              d="M245.932,93.216 L269.164,95.064 C269.224,95.068 269.288,95.072 269.352,95.072 C270.544,95.072 271.556,94.152 271.648,92.944 C271.756,91.676 270.8,90.564 269.528,90.46 L246.296,88.612 C245.108,88.508 243.916,89.452 243.812,90.732 C243.708,92 244.656,93.116 245.932,93.216 L245.932,93.216 Z"
              id="Shape"></path>
            <path
              d="M210.336,89.044 L234.816,90.992 C234.876,90.996 234.94,91 235.004,91 C236.196,91 237.204,90.084 237.3,88.872 C237.404,87.604 236.452,86.488 235.18,86.388 L210.7,84.44 C209.508,84.292 208.32,85.288 208.216,86.56 C208.112,87.828 209.064,88.944 210.336,89.044 L210.336,89.044 Z"
              id="Shape"></path>
            <path
              d="M254.664,137.78 C253.392,137.84 252.396,138.912 252.46,140.192 C252.508,141.436 253.532,142.404 254.764,142.404 L254.864,142.404 L272.048,141.664 C273.32,141.604 274.312,140.532 274.252,139.252 C274.204,138.008 273.18,137.044 271.944,137.044 L271.844,137.044 L254.664,137.78 L254.664,137.78 Z"
              id="Shape"></path>
          </g>
        </g>
      </g>
    </g>
  </g>
</svg>
