<?xml version="1.0" encoding="UTF-8"?>
<svg width="315px" height="388px" viewBox="0 0 315 388" version="1.1" xmlns="http://www.w3.org/2000/svg"
     xmlns:xlink="http://www.w3.org/1999/xlink">
  <!-- Generator: Sketch 3.6.1 (26313) - http://www.bohemiancoding.com/sketch -->
  <title>chats@1.5x</title>
  <desc>Created with Sketch.</desc>
  <defs></defs>
  <g id="Page-1" stroke="none" stroke-width="1" fill="none" fill-rule="evenodd">
    <g id="chats">
      <g id="speech-bubble">
        <g id="Layer_1">
          <g id="Group">
            <path
              d="M127.906,202.761702 C110.273,202.761702 96,217.051702 96,234.684702 L96,328.458702 C96,346.073702 110.281,360.364702 127.906,360.364702 L183.666,360.364702 C183.36,360.364702 183.578,387.247702 183.648,387.317702 C184.987,387.763702 212.832,360.312702 212.981,360.364702 L247.669,360.364702 C265.302,360.364702 279.583,346.083702 279.583,328.458702 L279.583,234.684702 C279.585,217.051702 265.304,202.761702 247.671,202.761702 L127.906,202.761702 Z"
              id="Shape" fill="#F3E0AB"></path>
            <path
              d="M125.605,102.032 L32.102,102.032 C14.469,102.032 0.179,116.252 0.179,133.789 L0.179,209.685 C0.179,227.239 14.478,241.459 32.102,241.459 L58.031,241.459 C58.18,241.406 86.025,268.718 87.373,268.272 C87.443,268.202 87.653,241.459 87.347,241.459 L125.606,241.459 C143.248,241.459 157.52,227.239 157.52,209.685 L157.52,133.789 C157.519,116.253 143.238,102.032 125.605,102.032 L125.605,102.032 Z"
              id="Shape" fill="#B28B68"></path>
            <g id="talk" transform="translate(158.000000, 228.000000)" fill="#CBB292">
              <path
                d="M54.7676397,54.2330602 C53.7441201,53.2096015 53.7441201,51.5553151 54.7676397,50.5318564 L82.5309367,22.767594 C83.5544563,21.7441353 85.2088407,21.7441353 86.2323603,22.767594 C87.2558799,23.7910532 87.2558799,25.4453391 86.2323603,26.4687978 L58.4690636,54.2330602 C57.9586126,54.7460985 57.2884821,55 56.6183517,55 C55.9482212,55 55.2780907,54.7434806 54.7676397,54.2330602 Z"
                id="Shape"
                transform="translate(70.500000, 38.500000) rotate(-315.000000) translate(-70.500000, -38.500000) "></path>
              <path
                d="M54.7676397,106.23306 C53.7441201,105.209602 53.7441201,103.555315 54.7676397,102.531856 L82.5309367,74.767594 C83.5544563,73.7441353 85.2088407,73.7441353 86.2323603,74.767594 C87.2558799,75.7910532 87.2558799,77.4453391 86.2323603,78.4687978 L58.4690636,106.23306 C57.9586126,106.746098 57.2884821,107 56.6183517,107 C55.9482212,107 55.2780907,106.743481 54.7676397,106.23306 Z"
                id="Shape"
                transform="translate(70.500000, 90.500000) rotate(-315.000000) translate(-70.500000, -90.500000) "></path>
              <path
                d="M7.76763969,88.2330602 C6.7441201,87.2096015 6.7441201,85.5553151 7.76763969,84.5318564 L35.5309367,56.767594 C36.5544563,55.7441353 38.2088407,55.7441353 39.2323603,56.767594 C40.2558799,57.7910532 40.2558799,59.4453391 39.2323603,60.4687978 L11.4690636,88.2330602 C10.9586126,88.7460985 10.2884821,89 9.61835167,89 C8.94822115,89 8.27809068,88.7434806 7.76763969,88.2330602 Z"
                id="Shape"
                transform="translate(23.500000, 72.500000) rotate(-315.000000) translate(-23.500000, -72.500000) "></path>
              <path
                d="M54.7676397,88.2330602 C53.7441201,87.2096015 53.7441201,85.5553151 54.7676397,84.5318564 L82.5309367,56.767594 C83.5544563,55.7441353 85.2088407,55.7441353 86.2323603,56.767594 C87.2558799,57.7910532 87.2558799,59.4453391 86.2323603,60.4687978 L58.4690636,88.2330602 C57.9586126,88.7460985 57.2884821,89 56.6183517,89 C55.9482212,89 55.2780907,88.7434806 54.7676397,88.2330602 Z"
                id="Shape"
                transform="translate(70.500000, 72.500000) rotate(-315.000000) translate(-70.500000, -72.500000) "></path>
              <path
                d="M54.7676397,73.2330602 C53.7441201,72.2096015 53.7441201,70.5553151 54.7676397,69.5318564 L82.5309367,41.767594 C83.5544563,40.7441353 85.2088407,40.7441353 86.2323603,41.767594 C87.2558799,42.7910532 87.2558799,44.4453391 86.2323603,45.4687978 L58.4690636,73.2330602 C57.9586126,73.7460985 57.2884821,74 56.6183517,74 C55.9482212,74 55.2780907,73.7434806 54.7676397,73.2330602 Z"
                id="Shape"
                transform="translate(70.500000, 57.500000) rotate(-315.000000) translate(-70.500000, -57.500000) "></path>
              <path
                d="M12.7676397,54.2330602 C11.7441201,53.2096015 11.7441201,51.5553151 12.7676397,50.5318564 L40.5309367,22.767594 C41.5544563,21.7441353 43.2088407,21.7441353 44.2323603,22.767594 C45.2558799,23.7910532 45.2558799,25.4453391 44.2323603,26.4687978 L16.4690636,54.2330602 C15.9586126,54.7460985 15.2884821,55 14.6183517,55 C13.9482212,55 13.2780907,54.7434806 12.7676397,54.2330602 Z"
                id="Shape"
                transform="translate(28.500000, 38.500000) rotate(-315.000000) translate(-28.500000, -38.500000) "></path>
              <path
                d="M54.7676397,39.2330602 C53.7441201,38.2096015 53.7441201,36.5553151 54.7676397,35.5318564 L82.5309367,7.76759402 C83.5544563,6.74413533 85.2088407,6.74413533 86.2323603,7.76759402 C87.2558799,8.7910532 87.2558799,10.4453391 86.2323603,11.4687978 L58.4690636,39.2330602 C57.9586126,39.7460985 57.2884821,40 56.6183517,40 C55.9482212,40 55.2780907,39.7434806 54.7676397,39.2330602 Z"
                id="Shape"
                transform="translate(70.500000, 23.500000) rotate(-315.000000) translate(-70.500000, -23.500000) "></path>
            </g>
            <path
              d="M162.906,0.593325324 C145.273,0.593325324 131,14.8833253 131,32.5163253 L131,126.290325 C131,143.905325 145.281,158.196325 162.906,158.196325 L218.666,158.196325 C218.36,158.196325 218.578,185.079325 218.648,185.149325 C219.987,185.595325 247.832,158.144325 247.981,158.196325 L282.669,158.196325 C300.302,158.196325 314.583,143.915325 314.583,126.290325 L314.583,32.5163253 C314.585,14.8833253 300.304,0.593325324 282.671,0.593325324 L162.906,0.593325324 Z"
              id="Shape" fill="#F1B261"></path>
            <g id="talk" transform="translate(33.000000, 114.000000)" fill="#CBB292">
              <path
                d="M54.7676397,54.2330602 C53.7441201,53.2096015 53.7441201,51.5553151 54.7676397,50.5318564 L82.5309367,22.767594 C83.5544563,21.7441353 85.2088407,21.7441353 86.2323603,22.767594 C87.2558799,23.7910532 87.2558799,25.4453391 86.2323603,26.4687978 L58.4690636,54.2330602 C57.9586126,54.7460985 57.2884821,55 56.6183517,55 C55.9482212,55 55.2780907,54.7434806 54.7676397,54.2330602 Z"
                id="Shape"
                transform="translate(70.500000, 38.500000) rotate(-315.000000) translate(-70.500000, -38.500000) "></path>
              <path
                d="M54.7676397,106.23306 C53.7441201,105.209602 53.7441201,103.555315 54.7676397,102.531856 L82.5309367,74.767594 C83.5544563,73.7441353 85.2088407,73.7441353 86.2323603,74.767594 C87.2558799,75.7910532 87.2558799,77.4453391 86.2323603,78.4687978 L58.4690636,106.23306 C57.9586126,106.746098 57.2884821,107 56.6183517,107 C55.9482212,107 55.2780907,106.743481 54.7676397,106.23306 Z"
                id="Shape"
                transform="translate(70.500000, 90.500000) rotate(-315.000000) translate(-70.500000, -90.500000) "></path>
              <path
                d="M7.76763969,88.2330602 C6.7441201,87.2096015 6.7441201,85.5553151 7.76763969,84.5318564 L35.5309367,56.767594 C36.5544563,55.7441353 38.2088407,55.7441353 39.2323603,56.767594 C40.2558799,57.7910532 40.2558799,59.4453391 39.2323603,60.4687978 L11.4690636,88.2330602 C10.9586126,88.7460985 10.2884821,89 9.61835167,89 C8.94822115,89 8.27809068,88.7434806 7.76763969,88.2330602 Z"
                id="Shape"
                transform="translate(23.500000, 72.500000) rotate(-315.000000) translate(-23.500000, -72.500000) "></path>
              <path
                d="M54.7676397,88.2330602 C53.7441201,87.2096015 53.7441201,85.5553151 54.7676397,84.5318564 L82.5309367,56.767594 C83.5544563,55.7441353 85.2088407,55.7441353 86.2323603,56.767594 C87.2558799,57.7910532 87.2558799,59.4453391 86.2323603,60.4687978 L58.4690636,88.2330602 C57.9586126,88.7460985 57.2884821,89 56.6183517,89 C55.9482212,89 55.2780907,88.7434806 54.7676397,88.2330602 Z"
                id="Shape"
                transform="translate(70.500000, 72.500000) rotate(-315.000000) translate(-70.500000, -72.500000) "></path>
              <path
                d="M54.7676397,73.2330602 C53.7441201,72.2096015 53.7441201,70.5553151 54.7676397,69.5318564 L82.5309367,41.767594 C83.5544563,40.7441353 85.2088407,40.7441353 86.2323603,41.767594 C87.2558799,42.7910532 87.2558799,44.4453391 86.2323603,45.4687978 L58.4690636,73.2330602 C57.9586126,73.7460985 57.2884821,74 56.6183517,74 C55.9482212,74 55.2780907,73.7434806 54.7676397,73.2330602 Z"
                id="Shape"
                transform="translate(70.500000, 57.500000) rotate(-315.000000) translate(-70.500000, -57.500000) "></path>
              <path
                d="M12.7676397,54.2330602 C11.7441201,53.2096015 11.7441201,51.5553151 12.7676397,50.5318564 L40.5309367,22.767594 C41.5544563,21.7441353 43.2088407,21.7441353 44.2323603,22.767594 C45.2558799,23.7910532 45.2558799,25.4453391 44.2323603,26.4687978 L16.4690636,54.2330602 C15.9586126,54.7460985 15.2884821,55 14.6183517,55 C13.9482212,55 13.2780907,54.7434806 12.7676397,54.2330602 Z"
                id="Shape"
                transform="translate(28.500000, 38.500000) rotate(-315.000000) translate(-28.500000, -38.500000) "></path>
              <path
                d="M54.7676397,39.2330602 C53.7441201,38.2096015 53.7441201,36.5553151 54.7676397,35.5318564 L82.5309367,7.76759402 C83.5544563,6.74413533 85.2088407,6.74413533 86.2323603,7.76759402 C87.2558799,8.7910532 87.2558799,10.4453391 86.2323603,11.4687978 L58.4690636,39.2330602 C57.9586126,39.7460985 57.2884821,40 56.6183517,40 C55.9482212,40 55.2780907,39.7434806 54.7676397,39.2330602 Z"
                id="Shape"
                transform="translate(70.500000, 23.500000) rotate(-315.000000) translate(-70.500000, -23.500000) "></path>
            </g>
            <path
              d="M233.014,119.173 C228.80474,119.173 225.389,122.589321 225.389,126.798 C225.389,131.006679 228.805321,134.423 233.014,134.423 C237.22326,134.423 240.639,131.011908 240.639,126.798 C240.639581,122.589321 237.22326,119.173 233.014,119.173 L233.014,119.173 Z M258.431635,119.173 C254.222375,119.173 250.806635,122.589321 250.806635,126.798 C250.806635,131.006679 254.222956,134.423 258.431635,134.423 C262.640314,134.423 266.056635,131.011908 266.056635,126.798 C266.056635,122.589321 262.640314,119.173 258.431635,119.173 L258.431635,119.173 Z M283.848689,119.173 C279.639429,119.173 276.223689,122.589321 276.223689,126.798 C276.223689,131.006679 279.640009,134.423 283.848689,134.423 C288.057949,134.423 291.473689,131.011908 291.473689,126.798 C291.473689,122.589321 288.057949,119.173 283.848689,119.173 L283.848689,119.173 Z"
              id="Shape" fill="#FFFFFF"></path>
          </g>
        </g>
      </g>
    </g>
  </g>
</svg>
