<?xml version="1.0" encoding="UTF-8"?>
<svg width="1024px" height="1024px" viewBox="0 0 1024 1024" version="1.1" xmlns="http://www.w3.org/2000/svg"
     xmlns:xlink="http://www.w3.org/1999/xlink">
  <!-- Generator: Sketch 3.6.1 (26313) - http://www.bohemiancoding.com/sketch -->
  <title>ioslogoitunes@1.5x</title>
  <desc>Created with Sketch.</desc>
  <defs></defs>
  <g id="Page-1" stroke="none" stroke-width="1" fill="none" fill-rule="evenodd">
    <g id="ioslogoitunes">
      <g id="udayam">
        <g id="sun" transform="translate(1.758766, 0.000000)">
          <g id="sun@1.5x"
             transform="translate(524.364170, 512.096548) rotate(-225.000000) translate(-524.364170, -512.096548) translate(174.342352, 152.156699)">
            <g id="Page-1" transform="translate(0.000000, 0.000000)">
              <g id="sun">
                <g id="summer">
                  <g id="Layer_1">
                    <path
                      d="M349.904331,591.174723 C224.616006,591.174723 124.159601,486.849772 124.159601,359.341498 C124.159601,231.833225 225.74473,127.508274 349.904331,127.508274 C474.063933,127.508274 575.649061,231.833225 575.649061,359.341498 C575.649061,486.849772 475.192657,591.174723 349.904331,591.174723 L349.904331,591.174723 L349.904331,591.174723 Z M349.904331,230.674058 C281.052189,230.674058 224.616006,288.632365 224.616006,359.341498 C224.616006,430.050632 281.052189,488.008938 349.904331,488.008938 C418.756474,488.008938 475.192657,430.050632 475.192657,359.341498 C475.192657,288.632365 418.756474,230.674058 349.904331,230.674058 L349.904331,230.674058 L349.904331,230.674058 Z"
                      id="Shape" fill="#F7B208"></path>
                    <ellipse id="Oval" fill="#F4840B" cx="349.904331" cy="32.4566514" rx="31.6042622"
                             ry="32.4566514"></ellipse>
                    <ellipse id="Oval" fill="#F7B208" cx="349.904331" cy="686.226345" rx="31.6042622"
                             ry="32.4566514"></ellipse>
                    <path
                      d="M217.843664,60.2766384 C226.873454,75.345798 221.229835,95.0516221 206.556428,104.324951 C191.88302,113.59828 172.694718,107.802449 163.664929,92.7332898 C154.63514,77.6641302 160.278758,57.9583061 174.952166,48.6849772 C189.625573,39.4116482 208.813875,44.0483127 217.843664,60.2766384 L217.843664,60.2766384 L217.843664,60.2766384 Z"
                      id="Shape" fill="#F4840B"></path>
                    <g id="Group" transform="translate(42.327137, 162.283257)" fill="#F7B208">
                      <ellipse id="Oval" cx="466.727229" cy="479.894775" rx="31.6042622" ry="32.4566514"></ellipse>
                      <path
                        d="M47.9707551,5.79583061 C62.6441626,15.0691596 68.2877808,34.7749837 59.2579916,49.8441433 C50.2282024,64.9133029 31.0399004,70.7091335 16.3664929,61.4358045 C1.69308547,52.1624755 -3.95053277,32.4566514 5.07925642,17.3874918 C12.980322,2.31833225 32.168624,-3.47749837 47.9707551,5.79583061 L47.9707551,5.79583061 L47.9707551,5.79583061 Z"
                        id="Shape"></path>
                    </g>
                    <ellipse id="Oval" fill="#F4840B" cx="625.312902" cy="522.783921" rx="31.6042622"
                             ry="32.4566514"></ellipse>
                    <path
                      d="M63.2085244,359.341498 C63.2085244,376.72899 49.6638406,391.79815 31.6042622,391.79815 C13.5446838,391.79815 0,376.72899 0,359.341498 C0,341.954006 13.5446838,326.884847 31.6042622,326.884847 C48.5351169,326.884847 63.2085244,340.79484 63.2085244,359.341498 Z"
                      id="Shape" fill="#F7B208"></path>
                    <path
                      d="M668.204401,326.884847 C685.135256,326.884847 699.808663,340.79484 699.808663,359.341498 C699.808663,376.72899 686.263979,391.79815 668.204401,391.79815 C650.144822,391.79815 636.600139,377.888156 636.600139,359.341498 C636.600139,341.954006 651.273546,326.884847 668.204401,326.884847 L668.204401,326.884847 L668.204401,326.884847 Z"
                      id="Shape" fill="#F4840B"></path>
                    <ellipse id="Oval" fill="#F7B208" cx="74.4957609" cy="522.783921" rx="31.6042622"
                             ry="32.4566514"></ellipse>
                    <path
                      d="M609.510771,168.079088 C624.184178,158.805759 643.37248,164.601589 652.40227,179.670749 C661.432059,194.739909 655.788441,214.445733 641.115033,223.719062 C626.441626,232.992391 607.253324,227.19656 598.223534,212.1274 C590.322469,197.058241 594.837364,176.193251 609.510771,168.079088 L609.510771,168.079088 L609.510771,168.079088 Z"
                      id="Shape" fill="#F4840B"></path>
                    <path
                      d="M163.664929,625.949706 C172.694718,610.880547 191.88302,605.084716 206.556428,614.358045 C221.229835,623.631374 226.873454,643.337198 217.843664,658.406358 C208.813875,673.475517 189.625573,679.271348 174.952166,669.998019 C160.278758,661.883856 154.63514,642.178032 163.664929,625.949706 L163.664929,625.949706 L163.664929,625.949706 Z"
                      id="Shape" fill="#F7B208"></path>
                    <g id="Group" transform="translate(170.719452, 43.468730)" fill="#F4840B">
                      <path
                        d="M311.245546,16.8079088 C320.275336,1.73874918 339.463638,-4.05708143 354.137045,5.21624755 C368.810453,14.4895765 374.454071,34.1954006 365.424282,49.2645602 C356.394492,64.3337198 337.20619,70.1295504 322.532783,60.8562214 C307.859376,51.5828925 302.215757,31.8770684 311.245546,16.8079088 L311.245546,16.8079088 L311.245546,16.8079088 Z"
                        id="Shape"></path>
                      <path
                        d="M0.846542737,174.454501 L73.0848563,248.641133 C95.6593293,212.706984 135.164657,188.364495 179.184879,188.364495 C248.037022,188.364495 304.473205,246.322801 304.473205,317.031935 C304.473205,363.39858 280.770008,403.969394 245.779575,425.99355 L318.017888,500.180182 C371.0679,456.131869 404.929609,390.0594 404.929609,315.872768 C404.929609,187.205329 304.473205,84.0395439 179.184879,84.0395439 C106.946566,84.0395439 42.6093178,119.973694 0.846542737,174.454501 Z"
                        id="Shape"></path>
                    </g>
                  </g>
                </g>
              </g>
            </g>
          </g>
          <rect id="Rectangle-1" fill="#F7EDD3" x="0" y="483.454607" width="974.935053" height="434.687296"></rect>
        </g>
        <path
          d="M504.841817,789.331709 L504.841817,778.295361 C504.469249,772.099485 504.282968,766.871794 504.282968,762.612129 L395.866252,584.287976 C388.787462,572.670709 384.316714,565.894071 382.453875,563.95786 C376.865356,558.149227 369.972954,555.244954 361.77646,555.244954 C357.305645,555.244954 353.952584,555.438572 351.717177,555.825814 L346.687536,555.825814 C344.07956,556.213057 342.216749,556.406675 341.099045,556.406675 C323.960922,556.406675 315.391989,549.630037 315.391989,536.076559 C315.391989,522.135839 322.843235,515.165584 337.745951,515.165584 C343.707037,515.165584 351.158283,515.940057 360.099913,517.489026 C377.983172,520.586963 394.748476,522.135909 410.396327,522.135909 C421.945932,522.135909 439.27008,520.393345 462.369289,516.908165 C470.193215,515.746438 476.899337,515.165584 482.487855,515.165584 C497.763139,515.165584 505.400666,521.942221 505.400666,535.495699 C505.400666,548.661935 496.27289,555.244954 478.017063,555.244954 L472.428572,554.664093 L458.457346,554.664093 L447.280365,554.083233 C442.80955,553.695991 440.574176,555.244936 440.574176,558.730116 C440.574176,560.279085 440.760457,561.343986 441.133025,561.924849 C441.505593,562.505712 442.436999,564.151467 443.92727,566.862163 L529.431175,717.885876 L616.052778,566.862163 C617.915618,563.764225 618.847024,560.666333 618.847024,557.568396 C618.847024,554.083216 616.425369,552.340652 611.581986,552.340652 L610.464288,552.340652 L600.405005,552.921512 L585.87493,554.664093 C579.541275,555.438578 574.697965,555.825814 571.344854,555.825814 C556.06957,555.825814 548.432043,549.049177 548.432043,535.495699 C548.432043,521.942221 555.883289,515.165584 570.786005,515.165584 C576.374524,515.165584 583.080645,515.746438 590.904571,516.908165 C611.768373,520.006103 629.837645,521.555049 645.112929,521.555049 C661.133349,521.555049 678.830058,520.006103 698.203589,516.908165 C705.654947,515.746438 711.988506,515.165584 717.204457,515.165584 C731.362037,515.165584 738.440721,521.942221 738.440721,535.495699 C738.440721,547.88745 731.548318,554.083233 717.763306,554.083233 C712.174787,554.083233 707.890321,553.695997 704.909777,552.921512 C698.948691,552.147028 694.850506,551.759791 692.615098,551.759791 C682.928333,551.759791 675.104525,556.406628 669.143438,565.700442 L660.760702,579.060232 L550.667439,758.546106 L550.667439,782.942244 C550.667439,822.440951 552.250829,847.030464 555.417656,856.71152 C558.584483,866.392575 566.501432,871.233031 579.168741,871.233031 C582.149284,871.233031 586.713172,870.748985 592.860543,869.780879 C599.007913,868.812774 603.571801,868.328728 606.552344,868.328728 C618.101949,868.328728 623.876665,874.524511 623.876665,886.916262 C623.876665,900.856982 615.494013,907.827238 598.728458,907.827238 L595.375363,907.827238 C593.885092,907.439996 592.581124,907.246378 591.46342,907.246378 L560.726722,903.180354 C549.177117,901.631386 537.813967,900.856913 526.63693,900.856913 C514.714757,900.856913 503.351607,901.631386 492.547138,903.180354 L464.045836,907.246378 C463.300701,907.246378 462.183014,907.439996 460.692742,907.827238 L456.780799,907.827238 C440.015243,907.827238 431.632591,901.050601 431.632591,887.497123 C431.632591,874.718129 437.593588,868.328728 449.515761,868.328728 C452.496304,868.328728 456.873911,868.812774 462.648714,869.780879 C468.423516,870.748985 472.801123,871.233031 475.781666,871.233031 C491.429518,871.233031 500.929857,860.971265 504.282968,840.447427 C504.655536,836.962247 504.841817,819.923845 504.841817,789.331709 L504.841817,789.331709 Z"
          id="UdaYam" fill="#8F7140"></path>
      </g>
    </g>
  </g>
</svg>
