<?xml version="1.0" encoding="UTF-8"?>
<svg width="358px" height="512px" viewBox="0 0 358 512" version="1.1" xmlns="http://www.w3.org/2000/svg"
     xmlns:xlink="http://www.w3.org/1999/xlink">
  <!-- Generator: Sketch 3.6.1 (26313) - http://www.bohemiancoding.com/sketch -->
  <title>rupee</title>
  <desc>Created with Sketch.</desc>
  <defs></defs>
  <g id="Page-1" stroke="none" stroke-width="1" fill="none" fill-rule="evenodd">
    <g id="rupee" fill="#BCBABA">
      <path
        d="M315.943,112.864 L255.66,112.864 C252.852,102.807 249.043,93.097 244.387,84.095 L315.944,84.095 C339.129,84.095 357.991,65.232 357.991,42.048 C357.991,18.864 339.129,0 315.944,0 L42.056,0 C18.871,0 0.009,18.863 0.009,42.047 C0.009,65.231 18.872,84.094 42.056,84.094 L106.566,84.094 C128.997,84.094 150.095,95.054 163.389,112.863 L42.056,112.863 C18.871,112.863 0.009,131.726 0.009,154.91 C0.009,178.095 18.872,196.957 42.056,196.957 L163.503,196.957 C150.224,214.766 129.084,225.726 106.567,225.726 L42.057,225.726 C18.872,225.726 0.01,244.465 0.01,267.497 C0.01,279.163 4.724,289.987 13.291,298.02 L194.439,498.193 C202.376,506.966 213.744,511.999 225.63,511.999 C236.057,511.999 246.071,508.134 253.828,501.115 C262.157,493.58 267.053,483.252 267.614,472.033 C268.175,460.812 264.335,450.047 256.796,441.712 L134.667,306.963 C179.342,298.656 218.545,270.713 241.6,229.994 C243.858,226.006 242.455,220.942 238.467,218.683 C234.479,216.426 229.415,217.828 227.156,221.816 C204.086,262.558 163,288.994 117.247,292.532 C114.089,292.777 111.346,294.796 110.175,297.738 C109.004,300.68 109.611,304.032 111.737,306.379 L244.49,452.854 C249.051,457.895 251.375,464.411 251.035,471.204 C250.695,477.996 247.732,484.247 242.69,488.808 C237.99,493.06 231.93,495.402 225.628,495.402 C218.424,495.402 211.541,492.361 206.744,487.059 L25.357,286.619 C25.188,286.432 25.011,286.253 24.826,286.082 C19.526,281.202 16.607,274.602 16.607,267.498 C16.607,253.618 28.024,242.325 42.057,242.325 L106.567,242.325 C140.096,242.325 171.137,222.661 185.648,192.231 C186.874,189.661 186.695,186.64 185.176,184.231 C183.656,181.822 181.006,180.362 178.157,180.362 L42.057,180.362 C28.024,180.362 16.607,168.946 16.607,154.912 C16.607,140.878 28.024,129.462 42.057,129.462 L178.059,129.462 C180.909,129.462 183.561,127.999 185.08,125.587 C186.6,123.175 186.775,120.153 185.545,117.581 C170.988,87.155 139.987,67.496 106.567,67.496 L42.057,67.496 C28.024,67.496 16.607,56.08 16.607,42.046 C16.607,28.012 28.024,16.596 42.057,16.596 L315.944,16.596 C329.977,16.596 341.394,28.012 341.394,42.046 C341.394,56.08 329.977,67.496 315.944,67.496 L229.898,67.496 C226.838,67.496 224.027,69.179 222.583,71.877 C221.138,74.575 221.295,77.848 222.99,80.394 C231.245,92.792 237.521,107.542 241.141,123.049 C242.017,126.804 245.366,129.461 249.223,129.461 L315.944,129.461 C329.977,129.461 341.394,140.877 341.394,154.911 C341.394,168.945 329.977,180.361 315.944,180.361 L248.974,180.361 C244.391,180.361 240.675,184.076 240.675,188.66 C240.675,193.244 244.391,196.959 248.974,196.959 L315.944,196.959 C339.129,196.959 357.991,178.096 357.991,154.912 C357.99,131.726 339.128,112.864 315.943,112.864 L315.943,112.864 Z"
        id="Shape"></path>
    </g>
  </g>
</svg>
