<?xml version="1.0" encoding="UTF-8"?>
<svg width="512px" height="512px" viewBox="0 0 512 512" version="1.1" xmlns="http://www.w3.org/2000/svg"
     xmlns:xlink="http://www.w3.org/1999/xlink">
  <!-- Generator: Sketch 3.6.1 (26313) - http://www.bohemiancoding.com/sketch -->
  <title>sell</title>
  <desc>Created with Sketch.</desc>
  <defs></defs>
  <g id="Page-1" stroke="none" stroke-width="1" fill="none" fill-rule="evenodd">
    <g id="sell">
      <g id="Page-1">
        <g>
          <g id="sell">
            <g id="Group-3">
              <g id="Group-2" fill="#F4EAD2">
                <circle id="Oval-1" cx="256" cy="256" r="256"></circle>
              </g>
              <g id="price-tag" transform="translate(102.288660, 104.567010)">
                <g id="Group">
                  <g id="Shape" transform="translate(0.000000, 27.391753)">
                    <path
                      d="M157.511753,0 L4.55043299,154.222845 C-0.65929897,159.432577 -0.65929897,167.883216 4.55043299,173.098227 L112.577155,281.124948 C117.786887,286.33468 126.237526,286.33468 131.452536,281.124948 L280.391753,128.158351 L280.391753,0 L157.511753,0 L157.511753,0 L157.511753,0 Z M227.608247,73.8969072 C215.948371,73.8969072 206.494845,64.4433814 206.494845,52.7835052 C206.494845,41.1236289 215.948371,31.6701031 227.608247,31.6701031 C239.268124,31.6701031 248.721649,41.1236289 248.721649,52.7835052 C248.721649,64.4433814 239.268124,73.8969072 227.608247,73.8969072 L227.608247,73.8969072 L227.608247,73.8969072 Z"
                      fill="#B28B68"></path>
                    <path
                      d="M227.608247,10.556701 C204.288495,10.556701 185.381443,29.4637526 185.381443,52.7835052 C185.381443,76.1032577 204.288495,95.0103093 227.608247,95.0103093 C250.928,95.0103093 269.835052,76.1032577 269.835052,52.7835052 C269.835052,29.4637526 250.928,10.556701 227.608247,10.556701 L227.608247,10.556701 L227.608247,10.556701 Z M227.608247,73.8969072 C215.948371,73.8969072 206.494845,64.4433814 206.494845,52.7835052 C206.494845,41.1236289 215.948371,31.6701031 227.608247,31.6701031 C239.268124,31.6701031 248.721649,41.1236289 248.721649,52.7835052 C248.721649,64.4433814 239.268124,73.8969072 227.608247,73.8969072 L227.608247,73.8969072 L227.608247,73.8969072 Z"
                      fill="#CBB292"></path>
                  </g>
                  <path
                    d="M227.608247,85.4536082 C226.25699,85.4536082 224.905732,84.9363299 223.876454,83.9070515 C221.812619,81.8432165 221.812619,78.507299 223.876454,76.4434639 L297.773361,2.5465567 C299.837196,0.482721649 303.173113,0.482721649 305.236948,2.5465567 C307.300784,4.61039175 307.300784,7.94630928 305.236948,10.0101443 L231.340041,83.9070515 C230.310763,84.9363299 228.959505,85.4536082 227.608247,85.4536082 L227.608247,85.4536082 L227.608247,85.4536082 Z"
                    id="Shape" fill="#D75A4A"></path>
                  <path
                    d="M120.188536,274.37633 C118.837278,274.37633 117.486021,273.859052 116.456742,272.829773 C114.392907,270.765938 114.392907,267.430021 116.456742,265.366186 L172.449485,209.384 C174.51332,207.320165 177.849237,207.320165 179.913072,209.384 C181.976907,211.447835 181.976907,214.783753 179.913072,216.847588 L123.92033,272.829773 C122.891052,273.859052 121.539794,274.37633 120.188536,274.37633 L120.188536,274.37633 L120.188536,274.37633 Z"
                    id="Shape" fill="#CBB292"></path>
                  <path
                    d="M194.829691,199.724619 C193.45732,199.724619 192.07967,199.149278 191.082062,198.193897 C190.12668,197.196289 189.55134,195.823918 189.55134,194.446268 C189.55134,193.073897 190.12668,191.701526 191.082062,190.698639 C193.035052,188.745649 196.677113,188.745649 198.57732,190.698639 C199.527423,191.654021 200.108041,193.021113 200.108041,194.446268 C200.108041,195.876701 199.527423,197.196289 198.57732,198.193897 C197.621938,199.149278 196.254845,199.724619 194.829691,199.724619 L194.829691,199.724619 L194.829691,199.724619 Z"
                    id="Shape" fill="#CBB292"></path>
                  <path
                    d="M86.6023918,203.461691 C85.251134,203.461691 83.8998763,202.944412 82.8705979,201.915134 C80.8067629,199.851299 80.8067629,196.515381 82.8705979,194.451546 L138.852784,138.464082 C140.916619,136.400247 144.252536,136.400247 146.316371,138.464082 C148.380206,140.527918 148.380206,143.863835 146.316371,145.92767 L90.3341856,201.915134 C89.3049072,202.949691 87.9536495,203.461691 86.6023918,203.461691 L86.6023918,203.461691 L86.6023918,203.461691 Z"
                    id="Shape" fill="#CBB292"></path>
                  <path
                    d="M131.389196,210.925278 C130.037938,210.925278 128.68668,210.408 127.657402,209.378722 C125.593567,207.314887 125.593567,203.978969 127.657402,201.915134 L164.980619,164.591918 C167.044454,162.528082 170.380371,162.528082 172.444206,164.591918 C174.508041,166.655753 174.508041,169.99167 172.444206,172.055505 L135.12099,209.378722 C134.091711,210.413278 132.740454,210.925278 131.389196,210.925278 L131.389196,210.925278 L131.389196,210.925278 Z"
                    id="Shape" fill="#CBB292"></path>
                  <path
                    d="M94.0659794,248.253773 C92.7147216,248.253773 91.3634639,247.736495 90.3341856,246.707216 C88.2703505,244.64866 88.2703505,241.307464 90.3341856,239.243629 L97.7977732,231.774763 C99.861608,229.710928 103.197526,229.710928 105.261361,231.774763 C107.325196,233.83332 107.325196,237.174515 105.261361,239.238351 L97.7977732,246.707216 C96.7684948,247.736495 95.4172371,248.253773 94.0659794,248.253773 L94.0659794,248.253773 L94.0659794,248.253773 Z"
                    id="Shape" fill="#CBB292"></path>
                  <path
                    d="M41.8155876,195.992825 C40.4643299,195.992825 39.1130722,195.475546 38.0837938,194.446268 C36.0199588,192.382433 36.0199588,189.046515 38.0837938,186.98268 L94.0659794,131.000495 C96.1298144,128.93666 99.465732,128.93666 101.529567,131.000495 C103.593402,133.06433 103.593402,136.400247 101.529567,138.464082 L45.5473814,194.446268 C44.5128247,195.480825 43.1668454,195.992825 41.8155876,195.992825 L41.8155876,195.992825 L41.8155876,195.992825 Z"
                    id="Shape" fill="#CBB292"></path>
                  <path
                    d="M116.440907,121.346392 C115.068536,121.346392 113.696165,120.765773 112.693278,119.81567 C111.743175,118.812784 111.162557,117.440412 111.162557,116.068041 C111.162557,114.642887 111.743175,113.323299 112.75134,112.320412 C114.646268,110.367423 118.240825,110.367423 120.188536,112.320412 C121.143918,113.270515 121.719258,114.642887 121.719258,116.068041 C121.719258,117.440412 121.143918,118.812784 120.188536,119.81567 C119.190928,120.760495 117.87134,121.346392 116.440907,121.346392 L116.440907,121.346392 L116.440907,121.346392 Z"
                    id="Shape" fill="#CBB292"></path>
                  <path
                    d="M71.6857732,218.409979 C70.2553402,218.409979 68.9357526,217.834639 67.9381443,216.826474 C66.9352577,215.876371 66.4074227,214.509278 66.4074227,213.131629 C66.4074227,211.706474 66.9352577,210.339381 67.9381443,209.384 C69.891134,207.43101 73.4276289,207.43101 75.3806186,209.384 C76.3782268,210.386887 76.9641237,211.706474 76.9641237,213.131629 C76.9641237,214.509278 76.3835052,215.828866 75.4334021,216.826474 C74.4252371,217.834639 73.0581443,218.409979 71.6857732,218.409979 L71.6857732,218.409979 L71.6857732,218.409979 Z"
                    id="Shape" fill="#CBB292"></path>
                  <path
                    d="M116.440907,225.857732 C115.068536,225.857732 113.696165,225.282392 112.693278,224.32701 C111.743175,223.329402 111.162557,221.951753 111.162557,220.579381 C111.162557,219.20701 111.743175,217.834639 112.693278,216.831753 C114.646268,214.878763 118.240825,214.878763 120.188536,216.831753 C121.191423,217.834639 121.719258,219.20701 121.719258,220.579381 C121.719258,221.951753 121.191423,223.329402 120.188536,224.32701 C119.190928,225.277113 117.87134,225.857732 116.440907,225.857732 L116.440907,225.857732 L116.440907,225.857732 Z"
                    id="Shape" fill="#CBB292"></path>
                </g>
              </g>
              <g id="Sell"
                 transform="translate(253.190076, 189.946708) rotate(-45.000000) translate(-253.190076, -189.946708) translate(220.690076, 168.446708)"
                 font-size="36" font-family="AmericanTypewriter, American Typewriter" fill="#CBB292"
                 font-weight="normal">
                <text>
                  <tspan x="0.671786" y="33.733505" fill="#000000">Sell</tspan>
                </text>
              </g>
            </g>
          </g>
        </g>
      </g>
    </g>
  </g>
</svg>
