<?xml version="1.0" encoding="UTF-8"?>
<svg width="512px" height="512px" viewBox="0 0 512 512" version="1.1" xmlns="http://www.w3.org/2000/svg"
     xmlns:xlink="http://www.w3.org/1999/xlink">
  <!-- Generator: Sketch 3.6.1 (26313) - http://www.bohemiancoding.com/sketch -->
  <title>sell</title>
  <desc>Created with Sketch.</desc>
  <defs></defs>
  <g id="Page-1" stroke="none" stroke-width="1" fill="none" fill-rule="evenodd">
    <g id="sell">
      <g id="Group-3">
        <g id="Group-2" fill="#F3E0AB">
          <circle id="Oval-1" cx="256" cy="256" r="256"></circle>
        </g>
        <g id="price-tag" transform="translate(100.288660, 104.567010)">
          <g id="Group" transform="translate(-0.000000, 0.000000)">
            <g transform="translate(-0.000000, 27.391753)" id="Shape">
              <path
                d="M159.511753,0 L6.55043299,154.222845 C1.34070103,159.432577 1.34070103,167.883216 6.55043299,173.098227 L114.577155,281.124948 C119.786887,286.33468 128.237526,286.33468 133.452536,281.124948 L282.391753,128.158351 L282.391753,0 L159.511753,0 L159.511753,0 Z M229.608247,73.8969072 C217.948371,73.8969072 208.494845,64.4433814 208.494845,52.7835052 C208.494845,41.1236289 217.948371,31.6701031 229.608247,31.6701031 C241.268124,31.6701031 250.721649,41.1236289 250.721649,52.7835052 C250.721649,64.4433814 241.268124,73.8969072 229.608247,73.8969072 L229.608247,73.8969072 Z"
                fill="#B28B68"></path>
              <path
                d="M229.608247,10.556701 C206.288495,10.556701 187.381443,29.4637526 187.381443,52.7835052 C187.381443,76.1032577 206.288495,95.0103093 229.608247,95.0103093 C252.928,95.0103093 271.835052,76.1032577 271.835052,52.7835052 C271.835052,29.4637526 252.928,10.556701 229.608247,10.556701 L229.608247,10.556701 Z M229.608247,73.8969072 C217.948371,73.8969072 208.494845,64.4433814 208.494845,52.7835052 C208.494845,41.1236289 217.948371,31.6701031 229.608247,31.6701031 C241.268124,31.6701031 250.721649,41.1236289 250.721649,52.7835052 C250.721649,64.4433814 241.268124,73.8969072 229.608247,73.8969072 L229.608247,73.8969072 Z"
                fill="#CBB292"></path>
            </g>
            <path
              d="M229.608247,85.4536082 C228.25699,85.4536082 226.905732,84.9363299 225.876454,83.9070515 C223.812619,81.8432165 223.812619,78.507299 225.876454,76.4434639 L299.773361,2.5465567 C301.837196,0.482721649 305.173113,0.482721649 307.236948,2.5465567 C309.300784,4.61039175 309.300784,7.94630928 307.236948,10.0101443 L233.340041,83.9070515 C232.310763,84.9363299 230.959505,85.4536082 229.608247,85.4536082 L229.608247,85.4536082 Z"
              id="Shape" fill="#D75A4A"></path>
            <path
              d="M122.188536,274.37633 C120.837278,274.37633 119.486021,273.859052 118.456742,272.829773 C116.392907,270.765938 116.392907,267.430021 118.456742,265.366186 L174.449485,209.384 C176.51332,207.320165 179.849237,207.320165 181.913072,209.384 C183.976907,211.447835 183.976907,214.783753 181.913072,216.847588 L125.92033,272.829773 C124.891052,273.859052 123.539794,274.37633 122.188536,274.37633 L122.188536,274.37633 Z"
              id="Shape" fill="#CBB292"></path>
            <path
              d="M196.829691,199.724619 C195.45732,199.724619 194.07967,199.149278 193.082062,198.193897 C192.12668,197.196289 191.55134,195.823918 191.55134,194.446268 C191.55134,193.073897 192.12668,191.701526 193.082062,190.698639 C195.035052,188.745649 198.677113,188.745649 200.57732,190.698639 C201.527423,191.654021 202.108041,193.021113 202.108041,194.446268 C202.108041,195.876701 201.527423,197.196289 200.57732,198.193897 C199.621938,199.149278 198.254845,199.724619 196.829691,199.724619 L196.829691,199.724619 Z"
              id="Shape" fill="#CBB292"></path>
            <path
              d="M88.6023918,203.461691 C87.251134,203.461691 85.8998763,202.944412 84.8705979,201.915134 C82.8067629,199.851299 82.8067629,196.515381 84.8705979,194.451546 L140.852784,138.464082 C142.916619,136.400247 146.252536,136.400247 148.316371,138.464082 C150.380206,140.527918 150.380206,143.863835 148.316371,145.92767 L92.3341856,201.915134 C91.3049072,202.949691 89.9536495,203.461691 88.6023918,203.461691 L88.6023918,203.461691 Z"
              id="Shape" fill="#CBB292"></path>
            <path
              d="M133.389196,210.925278 C132.037938,210.925278 130.68668,210.408 129.657402,209.378722 C127.593567,207.314887 127.593567,203.978969 129.657402,201.915134 L166.980619,164.591918 C169.044454,162.528082 172.380371,162.528082 174.444206,164.591918 C176.508041,166.655753 176.508041,169.99167 174.444206,172.055505 L137.12099,209.378722 C136.091711,210.413278 134.740454,210.925278 133.389196,210.925278 L133.389196,210.925278 Z"
              id="Shape" fill="#CBB292"></path>
            <path
              d="M96.0659794,248.253773 C94.7147216,248.253773 93.3634639,247.736495 92.3341856,246.707216 C90.2703505,244.64866 90.2703505,241.307464 92.3341856,239.243629 L99.7977732,231.774763 C101.861608,229.710928 105.197526,229.710928 107.261361,231.774763 C109.325196,233.83332 109.325196,237.174515 107.261361,239.238351 L99.7977732,246.707216 C98.7684948,247.736495 97.4172371,248.253773 96.0659794,248.253773 L96.0659794,248.253773 Z"
              id="Shape" fill="#CBB292"></path>
            <path
              d="M43.8155876,195.992825 C42.4643299,195.992825 41.1130722,195.475546 40.0837938,194.446268 C38.0199588,192.382433 38.0199588,189.046515 40.0837938,186.98268 L96.0659794,131.000495 C98.1298144,128.93666 101.465732,128.93666 103.529567,131.000495 C105.593402,133.06433 105.593402,136.400247 103.529567,138.464082 L47.5473814,194.446268 C46.5128247,195.480825 45.1668454,195.992825 43.8155876,195.992825 L43.8155876,195.992825 Z"
              id="Shape" fill="#CBB292"></path>
            <path
              d="M118.440907,121.346392 C117.068536,121.346392 115.696165,120.765773 114.693278,119.81567 C113.743175,118.812784 113.162557,117.440412 113.162557,116.068041 C113.162557,114.642887 113.743175,113.323299 114.75134,112.320412 C116.646268,110.367423 120.240825,110.367423 122.188536,112.320412 C123.143918,113.270515 123.719258,114.642887 123.719258,116.068041 C123.719258,117.440412 123.143918,118.812784 122.188536,119.81567 C121.190928,120.760495 119.87134,121.346392 118.440907,121.346392 L118.440907,121.346392 Z"
              id="Shape" fill="#CBB292"></path>
            <path
              d="M73.6857732,218.409979 C72.2553402,218.409979 70.9357526,217.834639 69.9381443,216.826474 C68.9352577,215.876371 68.4074227,214.509278 68.4074227,213.131629 C68.4074227,211.706474 68.9352577,210.339381 69.9381443,209.384 C71.891134,207.43101 75.4276289,207.43101 77.3806186,209.384 C78.3782268,210.386887 78.9641237,211.706474 78.9641237,213.131629 C78.9641237,214.509278 78.3835052,215.828866 77.4334021,216.826474 C76.4252371,217.834639 75.0581443,218.409979 73.6857732,218.409979 L73.6857732,218.409979 Z"
              id="Shape" fill="#CBB292"></path>
            <path
              d="M118.440907,225.857732 C117.068536,225.857732 115.696165,225.282392 114.693278,224.32701 C113.743175,223.329402 113.162557,221.951753 113.162557,220.579381 C113.162557,219.20701 113.743175,217.834639 114.693278,216.831753 C116.646268,214.878763 120.240825,214.878763 122.188536,216.831753 C123.191423,217.834639 123.719258,219.20701 123.719258,220.579381 C123.719258,221.951753 123.191423,223.329402 122.188536,224.32701 C121.190928,225.277113 119.87134,225.857732 118.440907,225.857732 L118.440907,225.857732 Z"
              id="Shape" fill="#CBB292"></path>
          </g>
        </g>
      </g>
    </g>
  </g>
</svg>
