<?xml version="1.0" encoding="UTF-8"?>
<svg width="512px" height="512px" viewBox="0 0 512 512" version="1.1" xmlns="http://www.w3.org/2000/svg"
     xmlns:xlink="http://www.w3.org/1999/xlink">
  <!-- Generator: Sketch 3.6.1 (26313) - http://www.bohemiancoding.com/sketch -->
  <title>sell</title>
  <desc>Created with Sketch.</desc>
  <defs></defs>
  <g id="Page-1" stroke="none" stroke-width="1" fill="none" fill-rule="evenodd">
    <g id="sell">
      <g id="Group-3">
        <g id="Group-2" fill="#F3E0AB">
          <circle id="Oval-1" cx="256" cy="256" r="256"></circle>
        </g>
        <g id="price-tag" transform="translate(100.288660, 105.567010)">
          <g id="Group">
            <g transform="translate(0.000000, 26.391753)" id="Shape">
              <path
                d="M159.511753,0 L6.55043299,154.222845 C1.34070103,159.432577 1.34070103,167.883216 6.55043299,173.098227 L114.577155,281.124948 C119.786887,286.33468 128.237526,286.33468 133.452536,281.124948 L282.391753,128.158351 L282.391753,0 L159.511753,0 L159.511753,0 Z M229.608247,73.8969072 C217.948371,73.8969072 208.494845,64.4433814 208.494845,52.7835052 C208.494845,41.1236289 217.948371,31.6701031 229.608247,31.6701031 C241.268124,31.6701031 250.721649,41.1236289 250.721649,52.7835052 C250.721649,64.4433814 241.268124,73.8969072 229.608247,73.8969072 L229.608247,73.8969072 Z"
                fill="#B28B68"></path>
              <path
                d="M229.608247,10.556701 C206.288495,10.556701 187.381443,29.4637526 187.381443,52.7835052 C187.381443,76.1032577 206.288495,95.0103093 229.608247,95.0103093 C252.928,95.0103093 271.835052,76.1032577 271.835052,52.7835052 C271.835052,29.4637526 252.928,10.556701 229.608247,10.556701 L229.608247,10.556701 Z M229.608247,73.8969072 C217.948371,73.8969072 208.494845,64.4433814 208.494845,52.7835052 C208.494845,41.1236289 217.948371,31.6701031 229.608247,31.6701031 C241.268124,31.6701031 250.721649,41.1236289 250.721649,52.7835052 C250.721649,64.4433814 241.268124,73.8969072 229.608247,73.8969072 L229.608247,73.8969072 Z"
                fill="#CBB292"></path>
            </g>
            <path
              d="M229.608247,84.4536082 C228.25699,84.4536082 226.905732,83.9363299 225.876454,82.9070515 C223.812619,80.8432165 223.812619,77.507299 225.876454,75.4434639 L299.773361,1.5465567 C301.837196,-0.517278351 305.173113,-0.517278351 307.236948,1.5465567 C309.300784,3.61039175 309.300784,6.94630928 307.236948,9.01014433 L233.340041,82.9070515 C232.310763,83.9363299 230.959505,84.4536082 229.608247,84.4536082 L229.608247,84.4536082 Z"
              id="Shape" fill="#D75A4A"></path>
            <path
              d="M122.188536,273.37633 C120.837278,273.37633 119.486021,272.859052 118.456742,271.829773 C116.392907,269.765938 116.392907,266.430021 118.456742,264.366186 L174.449485,208.384 C176.51332,206.320165 179.849237,206.320165 181.913072,208.384 C183.976907,210.447835 183.976907,213.783753 181.913072,215.847588 L125.92033,271.829773 C124.891052,272.859052 123.539794,273.37633 122.188536,273.37633 L122.188536,273.37633 Z"
              id="Shape" fill="#CBB292"></path>
            <path
              d="M196.829691,198.724619 C195.45732,198.724619 194.07967,198.149278 193.082062,197.193897 C192.12668,196.196289 191.55134,194.823918 191.55134,193.446268 C191.55134,192.073897 192.12668,190.701526 193.082062,189.698639 C195.035052,187.745649 198.677113,187.745649 200.57732,189.698639 C201.527423,190.654021 202.108041,192.021113 202.108041,193.446268 C202.108041,194.876701 201.527423,196.196289 200.57732,197.193897 C199.621938,198.149278 198.254845,198.724619 196.829691,198.724619 L196.829691,198.724619 Z"
              id="Shape" fill="#CBB292"></path>
            <path
              d="M88.6023918,202.461691 C87.251134,202.461691 85.8998763,201.944412 84.8705979,200.915134 C82.8067629,198.851299 82.8067629,195.515381 84.8705979,193.451546 L140.852784,137.464082 C142.916619,135.400247 146.252536,135.400247 148.316371,137.464082 C150.380206,139.527918 150.380206,142.863835 148.316371,144.92767 L92.3341856,200.915134 C91.3049072,201.949691 89.9536495,202.461691 88.6023918,202.461691 L88.6023918,202.461691 Z"
              id="Shape" fill="#CBB292"></path>
            <path
              d="M133.389196,209.925278 C132.037938,209.925278 130.68668,209.408 129.657402,208.378722 C127.593567,206.314887 127.593567,202.978969 129.657402,200.915134 L166.980619,163.591918 C169.044454,161.528082 172.380371,161.528082 174.444206,163.591918 C176.508041,165.655753 176.508041,168.99167 174.444206,171.055505 L137.12099,208.378722 C136.091711,209.413278 134.740454,209.925278 133.389196,209.925278 L133.389196,209.925278 Z"
              id="Shape" fill="#CBB292"></path>
            <path
              d="M96.0659794,247.253773 C94.7147216,247.253773 93.3634639,246.736495 92.3341856,245.707216 C90.2703505,243.64866 90.2703505,240.307464 92.3341856,238.243629 L99.7977732,230.774763 C101.861608,228.710928 105.197526,228.710928 107.261361,230.774763 C109.325196,232.83332 109.325196,236.174515 107.261361,238.238351 L99.7977732,245.707216 C98.7684948,246.736495 97.4172371,247.253773 96.0659794,247.253773 L96.0659794,247.253773 Z"
              id="Shape" fill="#CBB292"></path>
            <path
              d="M43.8155876,194.992825 C42.4643299,194.992825 41.1130722,194.475546 40.0837938,193.446268 C38.0199588,191.382433 38.0199588,188.046515 40.0837938,185.98268 L96.0659794,130.000495 C98.1298144,127.93666 101.465732,127.93666 103.529567,130.000495 C105.593402,132.06433 105.593402,135.400247 103.529567,137.464082 L47.5473814,193.446268 C46.5128247,194.480825 45.1668454,194.992825 43.8155876,194.992825 L43.8155876,194.992825 Z"
              id="Shape" fill="#CBB292"></path>
            <path
              d="M118.440907,120.346392 C117.068536,120.346392 115.696165,119.765773 114.693278,118.81567 C113.743175,117.812784 113.162557,116.440412 113.162557,115.068041 C113.162557,113.642887 113.743175,112.323299 114.75134,111.320412 C116.646268,109.367423 120.240825,109.367423 122.188536,111.320412 C123.143918,112.270515 123.719258,113.642887 123.719258,115.068041 C123.719258,116.440412 123.143918,117.812784 122.188536,118.81567 C121.190928,119.760495 119.87134,120.346392 118.440907,120.346392 L118.440907,120.346392 Z"
              id="Shape" fill="#CBB292"></path>
            <path
              d="M73.6857732,217.409979 C72.2553402,217.409979 70.9357526,216.834639 69.9381443,215.826474 C68.9352577,214.876371 68.4074227,213.509278 68.4074227,212.131629 C68.4074227,210.706474 68.9352577,209.339381 69.9381443,208.384 C71.891134,206.43101 75.4276289,206.43101 77.3806186,208.384 C78.3782268,209.386887 78.9641237,210.706474 78.9641237,212.131629 C78.9641237,213.509278 78.3835052,214.828866 77.4334021,215.826474 C76.4252371,216.834639 75.0581443,217.409979 73.6857732,217.409979 L73.6857732,217.409979 Z"
              id="Shape" fill="#CBB292"></path>
            <path
              d="M118.440907,224.857732 C117.068536,224.857732 115.696165,224.282392 114.693278,223.32701 C113.743175,222.329402 113.162557,220.951753 113.162557,219.579381 C113.162557,218.20701 113.743175,216.834639 114.693278,215.831753 C116.646268,213.878763 120.240825,213.878763 122.188536,215.831753 C123.191423,216.834639 123.719258,218.20701 123.719258,219.579381 C123.719258,220.951753 123.191423,222.329402 122.188536,223.32701 C121.190928,224.277113 119.87134,224.857732 118.440907,224.857732 L118.440907,224.857732 Z"
              id="Shape" fill="#CBB292"></path>
          </g>
        </g>
      </g>
      <text id="Sell"
            transform="translate(256.476659, 191.476659) rotate(-45.000000) translate(-256.476659, -191.476659) "
            font-family="AmericanTypewriter, American Typewriter" font-size="36" font-weight="normal" fill="#CBB292">
        <tspan x="224.476659" y="203.476659">Sell</tspan>
      </text>
    </g>
  </g>
</svg>
