<?xml version="1.0" encoding="UTF-8"?>
<svg width="342px" height="353px" viewBox="0 0 342 353" version="1.1" xmlns="http://www.w3.org/2000/svg"
     xmlns:xlink="http://www.w3.org/1999/xlink">
  <!-- Generator: Sketch 3.6.1 (26313) - http://www.bohemiancoding.com/sketch -->
  <title>tag</title>
  <desc>Created with Sketch.</desc>
  <defs></defs>
  <g id="Page-1" stroke="none" stroke-width="1" fill="none" fill-rule="evenodd">
    <g id="sell" transform="translate(-85.000000, -41.000000)">
      <g id="Group-3" transform="translate(-18.000000, 0.000000)">
        <g id="tag"
           transform="translate(275.617087, 276.451787) rotate(-45.000000) translate(-275.617087, -276.451787) translate(80.117087, 82.951787)">
          <g id="Group" transform="translate(0.000000, -0.000000)">
            <g transform="translate(0.000000, 0.391753)" id="Shape">
              <path
                d="M143.764319,0.726501465 L4.46428583,145.683395 C-0.745446127,150.893127 -0.745446195,162.164369 4.46428576,167.379379 L223.667384,381.857056 C228.877116,387.066788 240.372692,387.066788 245.587703,381.857056 L390.544597,237.607269 L334.391753,49 L320.541026,44.5671234 L143.764319,0.726501465 Z M281.608247,122.896907 C269.948371,122.896907 260.494845,113.443381 260.494845,101.783505 C260.494845,90.1236289 269.948371,80.6701031 281.608247,80.6701031 C293.268124,80.6701031 302.721649,90.1236289 302.721649,101.783505 C302.721649,113.443381 293.268124,122.896907 281.608247,122.896907 L281.608247,122.896907 Z"
                fill="#B28B68"></path>
              <path
                d="M281.608247,59.556701 C258.288495,59.556701 239.381443,78.4637526 239.381443,101.783505 C239.381443,125.103258 258.288495,144.010309 281.608247,144.010309 C304.928,144.010309 323.835052,125.103258 323.835052,101.783505 C323.835052,78.4637526 304.928,59.556701 281.608247,59.556701 L281.608247,59.556701 Z M281.608247,122.896907 C269.948371,122.896907 260.494845,113.443381 260.494845,101.783505 C260.494845,90.1236289 269.948371,80.6701031 281.608247,80.6701031 C293.268124,80.6701031 302.721649,90.1236289 302.721649,101.783505 C302.721649,113.443381 293.268124,122.896907 281.608247,122.896907 L281.608247,122.896907 Z"
                fill="#CBB292"></path>
            </g>
            <path
              d="M281.608247,107.453608 C280.25699,107.453608 278.905732,106.93633 277.876454,105.907052 C275.812619,103.843216 275.812619,100.507299 277.876454,98.4434639 L351.773361,24.5465567 C353.837196,22.4827216 357.173113,22.4827216 359.236948,24.5465567 C361.300784,26.6103918 361.300784,29.9463093 359.236948,32.0101443 L285.340041,105.907052 C284.310763,106.93633 282.959505,107.453608 281.608247,107.453608 L281.608247,107.453608 Z"
              id="Shape" fill="#D75A4A"></path>
          </g>
        </g>
      </g>
    </g>
  </g>
</svg>
